<svg width="16" height="16" viewBox="0 0 16 16" fill="none" xmlns="http://www.w3.org/2000/svg">
<path d="M9.54666 12.7133C9.54666 13.12 9.28 13.6533 8.94 13.86L8 14.4667C7.12667 15.0067 5.91333 14.4 5.91333 13.32V9.75333C5.91333 9.28 5.64667 8.67333 5.37333 8.34L2.81333 5.64666C2.47333 5.30666 2.20667 4.70666 2.20667 4.3V2.75333C2.20667 1.94666 2.81333 1.34 3.55333 1.34H12.4467C13.1867 1.34 13.7933 1.94666 13.7933 2.68666V4.16666C13.7933 4.70666 13.4533 5.38 13.12 5.71333" stroke="#023849" stroke-miterlimit="10" stroke-linecap="round" stroke-linejoin="round"/>
<path d="M13.2467 11.4133L12.58 10.7467M10.7134 11.0133C11.2791 11.0133 11.8218 10.7886 12.2218 10.3885C12.6219 9.98842 12.8467 9.4458 12.8467 8.88001C12.8467 8.31421 12.6219 7.77159 12.2218 7.37151C11.8218 6.97144 11.2791 6.74667 10.7134 6.74667C10.1476 6.74667 9.60493 6.97144 9.20486 7.37151C8.80478 7.77159 8.58002 8.31421 8.58002 8.88001C8.58002 9.4458 8.80478 9.98842 9.20486 10.3885C9.60493 10.7886 10.1476 11.0133 10.7134 11.0133Z" stroke="#023849" stroke-linecap="round" stroke-linejoin="round"/>
</svg>
