<svg width="24" height="24" viewBox="0 0 24 24" fill="none" xmlns="http://www.w3.org/2000/svg">
<g opacity="0.75">
<path d="M20 11C20 12.78 19.4722 14.5201 18.4832 16.0001C17.4943 17.4802 16.0887 18.6337 14.4442 19.3149C12.7996 19.9961 10.99 20.1743 9.24419 19.8271C7.49836 19.4798 5.89472 18.6226 4.63604 17.364C3.37737 16.1053 2.5202 14.5016 2.17294 12.7558C1.82567 11.01 2.0039 9.20038 2.68509 7.55585C3.36628 5.91131 4.51983 4.50571 5.99987 3.51677C7.47991 2.52784 9.21997 2 11 2" stroke="#011318" stroke-width="1.5" stroke-linecap="round" stroke-linejoin="round"/>
<path d="M13.5 6.13C13.15 5.03 13.56 3.66 14.72 3.29C15.33 3.09 16.08 3.26 16.51 3.85C16.91 3.24 17.69 3.1 18.29 3.29C19.45 3.66 19.86 5.03 19.51 6.13C18.96 7.88 17.04 8.79 16.51 8.79C15.97 8.79 14.07 7.9 13.5 6.13ZM18.93 20.69C19.46 22.29 20.67 22.45 21.6 21.05C22.45 19.77 21.89 18.72 20.35 18.72C19.21 18.71 18.57 19.6 18.93 20.69Z" stroke="#011318" stroke-width="1.5" stroke-linecap="round" stroke-linejoin="round"/>
</g>
</svg>
